<svg xmlns="http://www.w3.org/2000/svg" xmlns:xlink="http://www.w3.org/1999/xlink" width="143" zoomAndPan="magnify" viewBox="0 0 107.25 122.250003" height="163" preserveAspectRatio="xMidYMid meet" version="1.0"><defs><clipPath id="3813ee2a74"><path d="M 0 7 L 105.761719 7 L 105.761719 114 L 0 114 Z M 0 7 " clip-rule="nonzero"/></clipPath><clipPath id="7ee5e7c9d7"><path d="M 25.957031 33 L 80.328125 33 L 80.328125 88 L 25.957031 88 Z M 25.957031 33 " clip-rule="nonzero"/></clipPath></defs><g clip-path="url(#3813ee2a74)"><path fill="#000000" d="M 90.652344 19.019531 C 92.730469 19.019531 94.429688 20.726562 94.429688 22.816406 L 94.429688 98.691406 C 94.429688 100.777344 92.730469 102.484375 90.652344 102.484375 L 15.109375 102.484375 C 13.03125 102.484375 11.332031 100.777344 11.332031 98.691406 L 11.332031 22.816406 C 11.332031 20.726562 13.03125 19.019531 15.109375 19.019531 Z M 15.109375 7.640625 C 6.777344 7.640625 0 14.445312 0 22.816406 L 0 98.691406 C 0 107.058594 6.777344 113.867188 15.109375 113.867188 L 90.652344 113.867188 C 98.984375 113.867188 105.757812 107.058594 105.757812 98.691406 L 105.757812 22.816406 C 105.757812 14.445312 98.984375 7.640625 90.652344 7.640625 Z M 15.109375 7.640625 " fill-opacity="1" fill-rule="nonzero"/></g><g clip-path="url(#7ee5e7c9d7)"><path fill="#000000" d="M 25.957031 39.375 C 25.957031 36.175781 28.566406 33.582031 31.78125 33.582031 L 43.433594 33.582031 C 46.648438 33.582031 49.257812 36.175781 49.257812 39.375 L 49.257812 50.96875 C 49.257812 54.167969 46.648438 56.761719 43.433594 56.761719 L 31.78125 56.761719 C 28.566406 56.761719 25.957031 54.167969 25.957031 50.96875 Z M 33.722656 41.308594 L 33.722656 49.035156 L 41.492188 49.035156 L 41.492188 41.308594 Z M 25.957031 70.285156 C 25.957031 67.085938 28.566406 64.488281 31.78125 64.488281 L 43.433594 64.488281 C 46.648438 64.488281 49.257812 67.085938 49.257812 70.285156 L 49.257812 81.875 C 49.257812 85.074219 46.648438 87.671875 43.433594 87.671875 L 31.78125 87.671875 C 28.566406 87.671875 25.957031 85.074219 25.957031 81.875 Z M 33.722656 72.214844 L 33.722656 79.945312 L 41.492188 79.945312 L 41.492188 72.214844 Z M 62.851562 33.582031 L 74.5 33.582031 C 77.71875 33.582031 80.328125 36.175781 80.328125 39.375 L 80.328125 50.96875 C 80.328125 54.167969 77.71875 56.761719 74.5 56.761719 L 62.851562 56.761719 C 59.632812 56.761719 57.027344 54.167969 57.027344 50.96875 L 57.027344 39.375 C 57.027344 36.175781 59.632812 33.582031 62.851562 33.582031 Z M 72.558594 41.308594 L 64.792969 41.308594 L 64.792969 49.035156 L 72.558594 49.035156 Z M 57.027344 66.421875 C 57.027344 65.359375 57.898438 64.488281 58.96875 64.488281 L 66.734375 64.488281 C 67.800781 64.488281 68.675781 65.359375 68.675781 66.421875 C 68.675781 67.484375 69.550781 68.351562 70.617188 68.351562 L 74.5 68.351562 C 75.570312 68.351562 76.441406 67.484375 76.441406 66.421875 C 76.441406 65.359375 77.316406 64.488281 78.386719 64.488281 C 79.453125 64.488281 80.328125 65.359375 80.328125 66.421875 L 80.328125 78.011719 C 80.328125 79.074219 79.453125 79.945312 78.386719 79.945312 L 70.617188 79.945312 C 69.550781 79.945312 68.675781 79.074219 68.675781 78.011719 C 68.675781 76.949219 67.800781 76.078125 66.734375 76.078125 C 65.667969 76.078125 64.792969 76.949219 64.792969 78.011719 L 64.792969 85.738281 C 64.792969 86.800781 63.917969 87.671875 62.851562 87.671875 L 58.96875 87.671875 C 57.898438 87.671875 57.027344 86.800781 57.027344 85.738281 Z M 70.617188 87.671875 C 70.359375 87.671875 70.113281 87.621094 69.875 87.523438 C 69.636719 87.425781 69.425781 87.285156 69.246094 87.105469 C 69.0625 86.921875 68.921875 86.714844 68.824219 86.476562 C 68.726562 86.242188 68.675781 85.996094 68.675781 85.738281 C 68.675781 85.484375 68.726562 85.234375 68.824219 85 C 68.921875 84.761719 69.0625 84.554688 69.246094 84.371094 C 69.425781 84.191406 69.636719 84.050781 69.875 83.953125 C 70.113281 83.855469 70.359375 83.808594 70.617188 83.808594 C 70.875 83.808594 71.121094 83.855469 71.359375 83.953125 C 71.597656 84.050781 71.808594 84.191406 71.992188 84.371094 C 72.171875 84.554688 72.3125 84.761719 72.410156 85 C 72.511719 85.234375 72.558594 85.484375 72.558594 85.738281 C 72.558594 85.996094 72.511719 86.242188 72.410156 86.476562 C 72.3125 86.714844 72.171875 86.921875 71.992188 87.105469 C 71.808594 87.285156 71.597656 87.425781 71.359375 87.523438 C 71.121094 87.621094 70.875 87.671875 70.617188 87.671875 Z M 78.386719 87.671875 C 78.128906 87.671875 77.878906 87.621094 77.640625 87.523438 C 77.402344 87.425781 77.195312 87.285156 77.011719 87.105469 C 76.828125 86.921875 76.691406 86.714844 76.589844 86.476562 C 76.492188 86.242188 76.441406 85.996094 76.441406 85.738281 C 76.441406 85.484375 76.492188 85.234375 76.589844 85 C 76.691406 84.761719 76.828125 84.554688 77.011719 84.371094 C 77.195312 84.191406 77.402344 84.050781 77.640625 83.953125 C 77.878906 83.855469 78.128906 83.808594 78.386719 83.808594 C 78.640625 83.808594 78.890625 83.855469 79.128906 83.953125 C 79.367188 84.050781 79.574219 84.191406 79.757812 84.371094 C 79.941406 84.554688 80.082031 84.761719 80.179688 85 C 80.277344 85.234375 80.328125 85.484375 80.328125 85.738281 C 80.328125 85.996094 80.277344 86.242188 80.179688 86.476562 C 80.082031 86.714844 79.941406 86.921875 79.757812 87.105469 C 79.574219 87.285156 79.367188 87.425781 79.128906 87.523438 C 78.890625 87.621094 78.640625 87.671875 78.386719 87.671875 Z M 78.386719 87.671875 " fill-opacity="1" fill-rule="nonzero"/></g></svg>