<svg xmlns="http://www.w3.org/2000/svg" xmlns:xlink="http://www.w3.org/1999/xlink" width="143" zoomAndPan="magnify" viewBox="0 0 107.25 221.999994" height="296" preserveAspectRatio="xMidYMid meet" version="1.0"><defs><clipPath id="e70aa97ea8"><path d="M 24.378906 131 L 81.726562 131 L 81.726562 190 L 24.378906 190 Z M 24.378906 131 " clip-rule="nonzero"/></clipPath><clipPath id="07e8a9ce1c"><path d="M 0 8 L 105.761719 8 L 105.761719 115 L 0 115 Z M 0 8 " clip-rule="nonzero"/></clipPath><clipPath id="6ed6571a17"><path d="M 25.957031 34 L 80.328125 34 L 80.328125 89 L 25.957031 89 Z M 25.957031 34 " clip-rule="nonzero"/></clipPath><clipPath id="9cd4e43ff5"><path d="M 0 107 L 105.761719 107 L 105.761719 214 L 0 214 Z M 0 107 " clip-rule="nonzero"/></clipPath></defs><g clip-path="url(#e70aa97ea8)"><path fill="#000000" d="M 69.4375 135.796875 C 69.4375 133.53125 67.609375 131.699219 65.339844 131.699219 L 40.761719 131.699219 C 38.496094 131.699219 36.667969 133.53125 36.667969 135.796875 C 36.667969 138.0625 38.496094 139.890625 40.761719 139.890625 L 65.339844 139.890625 C 67.609375 139.890625 69.4375 138.0625 69.4375 135.796875 Z M 81.726562 152.179688 C 81.726562 149.914062 79.898438 148.082031 77.628906 148.082031 L 28.472656 148.082031 C 26.207031 148.082031 24.378906 149.914062 24.378906 152.179688 C 24.378906 154.445312 26.207031 156.273438 28.472656 156.273438 L 77.628906 156.273438 C 79.898438 156.273438 81.726562 154.445312 81.726562 152.179688 Z M 24.378906 184.949219 C 24.378906 187.214844 26.207031 189.042969 28.472656 189.042969 L 77.628906 189.042969 C 79.898438 189.042969 81.726562 187.214844 81.726562 184.949219 C 81.726562 182.683594 79.898438 180.851562 77.628906 180.851562 L 28.472656 180.851562 C 26.207031 180.851562 24.378906 182.683594 24.378906 184.949219 Z M 69.4375 168.5625 C 69.4375 166.296875 67.609375 164.46875 65.339844 164.46875 L 40.761719 164.46875 C 38.496094 164.46875 36.667969 166.296875 36.667969 168.5625 C 36.667969 170.828125 38.496094 172.660156 40.761719 172.660156 L 65.339844 172.660156 C 67.609375 172.660156 69.4375 170.828125 69.4375 168.5625 Z M 69.4375 168.5625 " fill-opacity="1" fill-rule="nonzero"/></g><g clip-path="url(#07e8a9ce1c)"><path fill="#000000" d="M 90.652344 19.738281 C 92.730469 19.738281 94.429688 21.445312 94.429688 23.535156 L 94.429688 99.410156 C 94.429688 101.496094 92.730469 103.203125 90.652344 103.203125 L 15.109375 103.203125 C 13.03125 103.203125 11.332031 101.496094 11.332031 99.410156 L 11.332031 23.535156 C 11.332031 21.445312 13.03125 19.738281 15.109375 19.738281 Z M 15.109375 8.359375 C 6.777344 8.359375 0 15.164062 0 23.535156 L 0 99.410156 C 0 107.777344 6.777344 114.585938 15.109375 114.585938 L 90.652344 114.585938 C 98.984375 114.585938 105.757812 107.777344 105.757812 99.410156 L 105.757812 23.535156 C 105.757812 15.164062 98.984375 8.359375 90.652344 8.359375 Z M 15.109375 8.359375 " fill-opacity="1" fill-rule="nonzero"/></g><g clip-path="url(#6ed6571a17)"><path fill="#000000" d="M 25.957031 40.09375 C 25.957031 36.894531 28.566406 34.300781 31.78125 34.300781 L 43.433594 34.300781 C 46.648438 34.300781 49.257812 36.894531 49.257812 40.09375 L 49.257812 51.6875 C 49.257812 54.886719 46.648438 57.480469 43.433594 57.480469 L 31.78125 57.480469 C 28.566406 57.480469 25.957031 54.886719 25.957031 51.6875 Z M 33.722656 42.027344 L 33.722656 49.753906 L 41.492188 49.753906 L 41.492188 42.027344 Z M 25.957031 71.003906 C 25.957031 67.804688 28.566406 65.207031 31.78125 65.207031 L 43.433594 65.207031 C 46.648438 65.207031 49.257812 67.804688 49.257812 71.003906 L 49.257812 82.59375 C 49.257812 85.792969 46.648438 88.390625 43.433594 88.390625 L 31.78125 88.390625 C 28.566406 88.390625 25.957031 85.792969 25.957031 82.59375 Z M 33.722656 72.933594 L 33.722656 80.664062 L 41.492188 80.664062 L 41.492188 72.933594 Z M 62.851562 34.300781 L 74.5 34.300781 C 77.71875 34.300781 80.328125 36.894531 80.328125 40.09375 L 80.328125 51.6875 C 80.328125 54.886719 77.71875 57.480469 74.5 57.480469 L 62.851562 57.480469 C 59.632812 57.480469 57.027344 54.886719 57.027344 51.6875 L 57.027344 40.09375 C 57.027344 36.894531 59.632812 34.300781 62.851562 34.300781 Z M 72.558594 42.027344 L 64.792969 42.027344 L 64.792969 49.753906 L 72.558594 49.753906 Z M 57.027344 67.140625 C 57.027344 66.078125 57.898438 65.207031 58.96875 65.207031 L 66.734375 65.207031 C 67.800781 65.207031 68.675781 66.078125 68.675781 67.140625 C 68.675781 68.203125 69.550781 69.070312 70.617188 69.070312 L 74.5 69.070312 C 75.570312 69.070312 76.441406 68.203125 76.441406 67.140625 C 76.441406 66.078125 77.316406 65.207031 78.386719 65.207031 C 79.453125 65.207031 80.328125 66.078125 80.328125 67.140625 L 80.328125 78.730469 C 80.328125 79.792969 79.453125 80.664062 78.386719 80.664062 L 70.617188 80.664062 C 69.550781 80.664062 68.675781 79.792969 68.675781 78.730469 C 68.675781 77.667969 67.800781 76.796875 66.734375 76.796875 C 65.667969 76.796875 64.792969 77.667969 64.792969 78.730469 L 64.792969 86.457031 C 64.792969 87.519531 63.917969 88.390625 62.851562 88.390625 L 58.96875 88.390625 C 57.898438 88.390625 57.027344 87.519531 57.027344 86.457031 Z M 70.617188 88.390625 C 70.359375 88.390625 70.113281 88.339844 69.875 88.242188 C 69.636719 88.144531 69.425781 88.003906 69.246094 87.824219 C 69.0625 87.640625 68.921875 87.433594 68.824219 87.195312 C 68.726562 86.960938 68.675781 86.714844 68.675781 86.457031 C 68.675781 86.203125 68.726562 85.953125 68.824219 85.71875 C 68.921875 85.480469 69.0625 85.273438 69.246094 85.089844 C 69.425781 84.910156 69.636719 84.769531 69.875 84.671875 C 70.113281 84.574219 70.359375 84.527344 70.617188 84.527344 C 70.875 84.527344 71.121094 84.574219 71.359375 84.671875 C 71.597656 84.769531 71.808594 84.910156 71.992188 85.089844 C 72.171875 85.273438 72.3125 85.480469 72.410156 85.71875 C 72.511719 85.953125 72.558594 86.203125 72.558594 86.457031 C 72.558594 86.714844 72.511719 86.960938 72.410156 87.195312 C 72.3125 87.433594 72.171875 87.640625 71.992188 87.824219 C 71.808594 88.003906 71.597656 88.144531 71.359375 88.242188 C 71.121094 88.339844 70.875 88.390625 70.617188 88.390625 Z M 78.386719 88.390625 C 78.128906 88.390625 77.878906 88.339844 77.640625 88.242188 C 77.402344 88.144531 77.195312 88.003906 77.011719 87.824219 C 76.828125 87.640625 76.691406 87.433594 76.589844 87.195312 C 76.492188 86.960938 76.441406 86.714844 76.441406 86.457031 C 76.441406 86.203125 76.492188 85.953125 76.589844 85.71875 C 76.691406 85.480469 76.828125 85.273438 77.011719 85.089844 C 77.195312 84.910156 77.402344 84.769531 77.640625 84.671875 C 77.878906 84.574219 78.128906 84.527344 78.386719 84.527344 C 78.640625 84.527344 78.890625 84.574219 79.128906 84.671875 C 79.367188 84.769531 79.574219 84.910156 79.757812 85.089844 C 79.941406 85.273438 80.082031 85.480469 80.179688 85.71875 C 80.277344 85.953125 80.328125 86.203125 80.328125 86.457031 C 80.328125 86.714844 80.277344 86.960938 80.179688 87.195312 C 80.082031 87.433594 79.941406 87.640625 79.757812 87.824219 C 79.574219 88.003906 79.367188 88.144531 79.128906 88.242188 C 78.890625 88.339844 78.640625 88.390625 78.386719 88.390625 Z M 78.386719 88.390625 " fill-opacity="1" fill-rule="nonzero"/></g><g clip-path="url(#9cd4e43ff5)"><path fill="#000000" d="M 90.652344 118.707031 C 92.730469 118.707031 94.429688 120.414062 94.429688 122.503906 L 94.429688 198.378906 C 94.429688 200.464844 92.730469 202.171875 90.652344 202.171875 L 15.109375 202.171875 C 13.03125 202.171875 11.332031 200.464844 11.332031 198.378906 L 11.332031 122.503906 C 11.332031 120.414062 13.03125 118.707031 15.109375 118.707031 Z M 15.109375 107.328125 C 6.777344 107.328125 0 114.132812 0 122.503906 L 0 198.378906 C 0 206.75 6.777344 213.554688 15.109375 213.554688 L 90.652344 213.554688 C 98.984375 213.554688 105.757812 206.75 105.757812 198.378906 L 105.757812 122.503906 C 105.757812 114.132812 98.984375 107.328125 90.652344 107.328125 Z M 15.109375 107.328125 " fill-opacity="1" fill-rule="nonzero"/></g></svg>