<svg xmlns="http://www.w3.org/2000/svg" xmlns:xlink="http://www.w3.org/1999/xlink" width="259" zoomAndPan="magnify" viewBox="0 0 194.25 68.249996" height="91" preserveAspectRatio="xMidYMid meet" version="1.0"><defs><g/><clipPath id="328b385c87"><path d="M 0.683594 18.933594 L 192.34375 18.933594 L 192.34375 67.414062 L 0.683594 67.414062 Z M 0.683594 18.933594 " clip-rule="nonzero"/></clipPath><clipPath id="b1d9cb2012"><path d="M 11.8125 18.933594 L 181.09375 18.933594 C 184.042969 18.933594 186.875 20.105469 188.960938 22.191406 C 191.046875 24.277344 192.21875 27.109375 192.21875 30.058594 L 192.21875 56.285156 C 192.21875 59.238281 191.046875 62.070312 188.960938 64.15625 C 186.875 66.242188 184.042969 67.414062 181.09375 67.414062 L 11.8125 67.414062 C 8.859375 67.414062 6.03125 66.242188 3.945312 64.15625 C 1.855469 62.070312 0.683594 59.238281 0.683594 56.285156 L 0.683594 30.058594 C 0.683594 27.109375 1.855469 24.277344 3.945312 22.191406 C 6.03125 20.105469 8.859375 18.933594 11.8125 18.933594 Z M 11.8125 18.933594 " clip-rule="nonzero"/></clipPath><clipPath id="d098d92e10"><path d="M 76.492188 2.066406 L 116.386719 2.066406 L 116.386719 27.828125 L 76.492188 27.828125 Z M 76.492188 2.066406 " clip-rule="nonzero"/></clipPath><clipPath id="e3c5b5894a"><path d="M 99.230469 3.476562 L 115.917969 24.351562 C 116.429688 24.996094 116.53125 25.875 116.175781 26.617188 C 115.816406 27.359375 115.070312 27.828125 114.246094 27.828125 L 78.660156 27.828125 C 77.835938 27.828125 77.085938 27.359375 76.730469 26.617188 C 76.375 25.875 76.472656 24.996094 76.988281 24.351562 L 93.671875 3.476562 C 94.347656 2.632812 95.371094 2.140625 96.453125 2.140625 C 97.535156 2.140625 98.554688 2.632812 99.230469 3.476562 Z M 99.230469 3.476562 " clip-rule="nonzero"/></clipPath></defs><g clip-path="url(#328b385c87)"><g clip-path="url(#b1d9cb2012)"><path fill="#13c296" d="M 0.683594 18.933594 L 192.152344 18.933594 L 192.152344 67.414062 L 0.683594 67.414062 Z M 0.683594 18.933594 " fill-opacity="1" fill-rule="nonzero"/></g></g><g fill="#ffffff" fill-opacity="1"><g transform="translate(67.474269, 47.864203)"><g><path d="M 6.34375 -7.171875 C 6.300781 -7.566406 6.128906 -7.875 5.828125 -8.09375 C 5.523438 -8.3125 5.117188 -8.421875 4.609375 -8.421875 C 4.085938 -8.421875 3.6875 -8.3125 3.40625 -8.09375 C 3.132812 -7.882812 3 -7.617188 3 -7.296875 C 2.988281 -6.941406 3.140625 -6.671875 3.453125 -6.484375 C 3.773438 -6.296875 4.15625 -6.148438 4.59375 -6.046875 L 5.5 -5.828125 C 6.082031 -5.703125 6.597656 -5.515625 7.046875 -5.265625 C 7.503906 -5.015625 7.863281 -4.691406 8.125 -4.296875 C 8.382812 -3.910156 8.515625 -3.4375 8.515625 -2.875 C 8.515625 -1.957031 8.171875 -1.222656 7.484375 -0.671875 C 6.796875 -0.128906 5.835938 0.140625 4.609375 0.140625 C 3.378906 0.140625 2.398438 -0.132812 1.671875 -0.6875 C 0.953125 -1.25 0.578125 -2.070312 0.546875 -3.15625 L 2.609375 -3.15625 C 2.648438 -2.65625 2.847656 -2.273438 3.203125 -2.015625 C 3.566406 -1.765625 4.023438 -1.640625 4.578125 -1.640625 C 5.117188 -1.640625 5.550781 -1.753906 5.875 -1.984375 C 6.195312 -2.210938 6.359375 -2.507812 6.359375 -2.875 C 6.359375 -3.21875 6.210938 -3.476562 5.921875 -3.65625 C 5.628906 -3.84375 5.207031 -4.003906 4.65625 -4.140625 L 3.5625 -4.421875 C 2.707031 -4.617188 2.035156 -4.9375 1.546875 -5.375 C 1.054688 -5.820312 0.8125 -6.414062 0.8125 -7.15625 C 0.8125 -7.769531 0.972656 -8.300781 1.296875 -8.75 C 1.628906 -9.207031 2.082031 -9.5625 2.65625 -9.8125 C 3.238281 -10.070312 3.894531 -10.203125 4.625 -10.203125 C 5.375 -10.203125 6.023438 -10.070312 6.578125 -9.8125 C 7.140625 -9.5625 7.578125 -9.207031 7.890625 -8.75 C 8.203125 -8.300781 8.363281 -7.773438 8.375 -7.171875 Z M 6.34375 -7.171875 "/></g></g></g><g fill="#ffffff" fill-opacity="1"><g transform="translate(76.537295, 47.864203)"><g><path d="M 4.25 0.140625 C 3.476562 0.140625 2.8125 -0.0195312 2.25 -0.34375 C 1.695312 -0.675781 1.269531 -1.132812 0.96875 -1.71875 C 0.675781 -2.300781 0.53125 -2.976562 0.53125 -3.75 C 0.53125 -4.519531 0.679688 -5.195312 0.984375 -5.78125 C 1.285156 -6.363281 1.710938 -6.820312 2.265625 -7.15625 C 2.816406 -7.488281 3.472656 -7.65625 4.234375 -7.65625 C 4.890625 -7.65625 5.46875 -7.535156 5.96875 -7.296875 C 6.46875 -7.054688 6.859375 -6.71875 7.140625 -6.28125 C 7.429688 -5.851562 7.59375 -5.347656 7.625 -4.765625 L 5.640625 -4.765625 C 5.585938 -5.140625 5.441406 -5.441406 5.203125 -5.671875 C 4.960938 -5.898438 4.648438 -6.015625 4.265625 -6.015625 C 3.785156 -6.015625 3.394531 -5.816406 3.09375 -5.421875 C 2.800781 -5.035156 2.65625 -4.488281 2.65625 -3.78125 C 2.65625 -3.050781 2.800781 -2.488281 3.09375 -2.09375 C 3.394531 -1.707031 3.785156 -1.515625 4.265625 -1.515625 C 4.628906 -1.515625 4.929688 -1.617188 5.171875 -1.828125 C 5.421875 -2.046875 5.578125 -2.359375 5.640625 -2.765625 L 7.625 -2.765625 C 7.59375 -2.191406 7.4375 -1.679688 7.15625 -1.234375 C 6.875 -0.796875 6.484375 -0.457031 5.984375 -0.21875 C 5.492188 0.0195312 4.914062 0.140625 4.25 0.140625 Z M 4.25 0.140625 "/></g></g></g><g fill="#ffffff" fill-opacity="1"><g transform="translate(84.666491, 47.864203)"><g><path d="M 2.984375 0.140625 C 2.265625 0.140625 1.664062 -0.046875 1.1875 -0.421875 C 0.71875 -0.796875 0.484375 -1.359375 0.484375 -2.109375 C 0.484375 -2.671875 0.613281 -3.113281 0.875 -3.4375 C 1.144531 -3.757812 1.492188 -3.992188 1.921875 -4.140625 C 2.359375 -4.285156 2.820312 -4.382812 3.3125 -4.4375 C 3.96875 -4.5 4.4375 -4.566406 4.71875 -4.640625 C 5 -4.710938 5.140625 -4.867188 5.140625 -5.109375 L 5.140625 -5.140625 C 5.140625 -5.453125 5.039062 -5.691406 4.84375 -5.859375 C 4.65625 -6.035156 4.382812 -6.125 4.03125 -6.125 C 3.65625 -6.125 3.351562 -6.039062 3.125 -5.875 C 2.90625 -5.707031 2.757812 -5.5 2.6875 -5.25 L 0.75 -5.40625 C 0.894531 -6.09375 1.25 -6.640625 1.8125 -7.046875 C 2.382812 -7.453125 3.125 -7.65625 4.03125 -7.65625 C 4.59375 -7.65625 5.117188 -7.566406 5.609375 -7.390625 C 6.097656 -7.210938 6.488281 -6.9375 6.78125 -6.5625 C 7.082031 -6.1875 7.234375 -5.695312 7.234375 -5.09375 L 7.234375 0 L 5.25 0 L 5.25 -1.046875 L 5.203125 -1.046875 C 5.015625 -0.691406 4.738281 -0.40625 4.375 -0.1875 C 4.007812 0.03125 3.546875 0.140625 2.984375 0.140625 Z M 3.59375 -1.296875 C 4.050781 -1.296875 4.425781 -1.429688 4.71875 -1.703125 C 5.007812 -1.972656 5.15625 -2.304688 5.15625 -2.703125 L 5.15625 -3.5 C 5.082031 -3.445312 4.957031 -3.394531 4.78125 -3.34375 C 4.601562 -3.300781 4.414062 -3.265625 4.21875 -3.234375 C 4.03125 -3.210938 3.859375 -3.1875 3.703125 -3.15625 C 3.335938 -3.101562 3.039062 -3 2.8125 -2.84375 C 2.59375 -2.695312 2.484375 -2.472656 2.484375 -2.171875 C 2.484375 -1.890625 2.585938 -1.671875 2.796875 -1.515625 C 3.003906 -1.367188 3.269531 -1.296875 3.59375 -1.296875 Z M 3.59375 -1.296875 "/></g></g></g><g fill="#ffffff" fill-opacity="1"><g transform="translate(92.697386, 47.864203)"><g><path d="M 2.9375 -4.359375 L 2.9375 0 L 0.828125 0 L 0.828125 -7.546875 L 2.828125 -7.546875 L 2.828125 -6.21875 L 2.921875 -6.21875 C 3.085938 -6.65625 3.363281 -7.003906 3.75 -7.265625 C 4.144531 -7.523438 4.625 -7.65625 5.1875 -7.65625 C 5.976562 -7.65625 6.609375 -7.398438 7.078125 -6.890625 C 7.554688 -6.378906 7.796875 -5.6875 7.796875 -4.8125 L 7.796875 0 L 5.703125 0 L 5.703125 -4.4375 C 5.703125 -4.894531 5.582031 -5.253906 5.34375 -5.515625 C 5.101562 -5.773438 4.773438 -5.90625 4.359375 -5.90625 C 3.929688 -5.90625 3.585938 -5.769531 3.328125 -5.5 C 3.066406 -5.226562 2.9375 -4.847656 2.9375 -4.359375 Z M 2.9375 -4.359375 "/></g></g></g><g fill="#ffffff" fill-opacity="1"><g transform="translate(101.303323, 47.864203)"><g/></g></g><g fill="#ffffff" fill-opacity="1"><g transform="translate(104.512729, 47.864203)"><g><path d="M 0.828125 0 L 0.828125 -7.546875 L 2.828125 -7.546875 L 2.828125 -6.21875 L 2.921875 -6.21875 C 3.078125 -6.664062 3.335938 -7.015625 3.703125 -7.265625 C 4.078125 -7.523438 4.519531 -7.65625 5.03125 -7.65625 C 5.539062 -7.65625 5.976562 -7.523438 6.34375 -7.265625 C 6.707031 -7.003906 6.953125 -6.65625 7.078125 -6.21875 L 7.15625 -6.21875 C 7.3125 -6.65625 7.585938 -7.003906 7.984375 -7.265625 C 8.390625 -7.523438 8.867188 -7.65625 9.421875 -7.65625 C 10.128906 -7.65625 10.703125 -7.429688 11.140625 -6.984375 C 11.585938 -6.535156 11.8125 -5.898438 11.8125 -5.078125 L 11.8125 0 L 9.71875 0 L 9.71875 -4.671875 C 9.71875 -5.085938 9.601562 -5.398438 9.375 -5.609375 C 9.15625 -5.816406 8.878906 -5.921875 8.546875 -5.921875 C 8.171875 -5.921875 7.875 -5.800781 7.65625 -5.5625 C 7.445312 -5.320312 7.34375 -5.003906 7.34375 -4.609375 L 7.34375 0 L 5.3125 0 L 5.3125 -4.703125 C 5.3125 -5.078125 5.203125 -5.375 4.984375 -5.59375 C 4.773438 -5.8125 4.5 -5.921875 4.15625 -5.921875 C 3.8125 -5.921875 3.519531 -5.789062 3.28125 -5.53125 C 3.050781 -5.28125 2.9375 -4.945312 2.9375 -4.53125 L 2.9375 0 Z M 0.828125 0 "/></g></g></g><g fill="#ffffff" fill-opacity="1"><g transform="translate(117.134125, 47.864203)"><g><path d="M 4.28125 0.140625 C 3.5 0.140625 2.828125 -0.015625 2.265625 -0.328125 C 1.710938 -0.640625 1.285156 -1.085938 0.984375 -1.671875 C 0.679688 -2.253906 0.53125 -2.941406 0.53125 -3.734375 C 0.53125 -4.515625 0.679688 -5.195312 0.984375 -5.78125 C 1.285156 -6.375 1.707031 -6.832031 2.25 -7.15625 C 2.800781 -7.488281 3.445312 -7.65625 4.1875 -7.65625 C 4.851562 -7.65625 5.453125 -7.507812 5.984375 -7.21875 C 6.523438 -6.9375 6.953125 -6.507812 7.265625 -5.9375 C 7.585938 -5.375 7.75 -4.664062 7.75 -3.8125 L 7.75 -3.234375 L 2.59375 -3.234375 C 2.59375 -2.671875 2.75 -2.226562 3.0625 -1.90625 C 3.375 -1.582031 3.789062 -1.421875 4.3125 -1.421875 C 4.664062 -1.421875 4.96875 -1.492188 5.21875 -1.640625 C 5.476562 -1.785156 5.660156 -2.003906 5.765625 -2.296875 L 7.703125 -2.15625 C 7.554688 -1.457031 7.179688 -0.898438 6.578125 -0.484375 C 5.972656 -0.0664062 5.207031 0.140625 4.28125 0.140625 Z M 2.59375 -4.53125 L 5.765625 -4.53125 C 5.765625 -4.988281 5.617188 -5.363281 5.328125 -5.65625 C 5.046875 -5.945312 4.679688 -6.09375 4.234375 -6.09375 C 3.765625 -6.09375 3.378906 -5.941406 3.078125 -5.640625 C 2.785156 -5.335938 2.625 -4.96875 2.59375 -4.53125 Z M 2.59375 -4.53125 "/></g></g></g><g clip-path="url(#d098d92e10)"><g clip-path="url(#e3c5b5894a)"><path fill="#13c296" d="M 74.207031 0 L 118.671875 0 L 118.671875 27.828125 L 74.207031 27.828125 Z M 74.207031 0 " fill-opacity="1" fill-rule="nonzero"/></g></g></svg>